<svg id="object" xmlns="http://www.w3.org/2000/svg" xmlns:xlink="http://www.w3.org/1999/xlink" viewBox="0 0 800 800"><defs><style>.cls-1{font-size:133px;fill:#414042;font-family:Helvetica-Light, Helvetica;}.cls-2{font-family:Helvetica-Bold, Helvetica;font-weight:700;}.cls-3{fill:url(#Unbenannter_Verlauf_14);}.cls-4{fill:url(#Unbenannter_Verlauf_26);}.cls-5{fill:url(#linear-gradient);}.cls-6{fill:url(#Unbenannter_Verlauf_23);}.cls-7{fill:url(#Unbenannter_Verlauf_10);}</style><linearGradient id="Unbenannter_Verlauf_14" x1="200" y1="212.99" x2="400.99" y2="212.99" gradientUnits="userSpaceOnUse"><stop offset="0" stop-color="#d67efc"/><stop offset="1" stop-color="#d8c645"/></linearGradient><linearGradient id="Unbenannter_Verlauf_26" x1="399.02" y1="381.98" x2="600" y2="381.98" gradientUnits="userSpaceOnUse"><stop offset="0" stop-color="#ff5b49"/><stop offset="1" stop-color="#f7864a"/></linearGradient><linearGradient id="linear-gradient" x1="221.32" y1="300.3" x2="478.65" y2="431.42" gradientUnits="userSpaceOnUse"><stop offset="0" stop-color="#c17725"/><stop offset="0.02" stop-color="#cc8026"/><stop offset="0.09" stop-color="#ea9a2a"/><stop offset="0.13" stop-color="#f5a42c"/><stop offset="0.62" stop-color="#f5a42c"/><stop offset="0.8" stop-color="#ffca52"/><stop offset="1" stop-color="#ffca52"/></linearGradient><linearGradient id="Unbenannter_Verlauf_23" x1="399.02" y1="213.16" x2="578.24" y2="213.16" gradientUnits="userSpaceOnUse"><stop offset="0" stop-color="#d8c645"/><stop offset="1" stop-color="#f7864a"/></linearGradient><linearGradient id="Unbenannter_Verlauf_10" x1="219.79" y1="381.09" x2="399.02" y2="381.09" gradientUnits="userSpaceOnUse"><stop offset="0" stop-color="#d67efc"/><stop offset="1" stop-color="#ff5b49"/></linearGradient></defs><title>Artboard 4</title><text class="cls-1" transform="translate(0 735.95)">ABER<tspan class="cls-2" x="347.39" y="0">SCENE</tspan></text><path class="cls-3" d="M222.06,359.23c-2.06-38.12,6.41-75.7,28-109.64,24-38.2,67.73-69,112.62-75.14a100.3,100.3,0,0,1,38.3-7.57V66.75c-110.82,0-201,90.16-201,201A199.75,199.75,0,0,0,222.06,359.23Z"/><path class="cls-4" d="M577.94,176.24c2.06,38.12-6.41,75.7-28,109.64-24,38.2-67.73,69-112.62,75.14a100.29,100.29,0,0,1-38.3,7.57V587.72s201-209.16,201-320A199.76,199.76,0,0,0,577.94,176.24Z"/><path class="cls-5" d="M298.16,267.74a101,101,0,0,1,62.56-93.28c-44.89,6.13-88.61,36.94-112.62,75.14-21.59,33.93-30.06,71.51-28,109.64C253.44,424.18,399,587.72,399,587.72V368.59A101,101,0,0,1,298.16,267.74Z"/><path class="cls-6" d="M499.87,266.29c0,42.06-25.89,79.62-62.56,94.73,44.89-6.13,88.58-36.4,113.1-75.9,21.21-34.18,29.58-70.75,27.52-108.88C544.59,111.29,476.91,65.3,399,65.3V166.88C454.63,166.88,499.87,210.67,499.87,266.29Z"/><path class="cls-7" d="M298.16,267.74a101,101,0,0,1,62.56-93.28c-44.89,6.13-88.61,36.94-112.62,75.14-21.59,33.93-30.06,71.51-28,109.64C253.44,424.18,399,587.72,399,587.72V368.59A101,101,0,0,1,298.16,267.74Z"/></svg>